<svg width="231" height="58" viewBox="0 0 231 58" fill="none" xmlns="http://www.w3.org/2000/svg">
<g clip-path="url(#clip0_982:25)">
<path d="M78.2127 0C68.3146 0 60.5586 7.69316 60.5586 17.4506V17.5532C60.5586 27.4453 68.1036 34.9013 78.1168 34.9013C88.13 34.9013 95.7646 27.4005 95.7646 17.4506V17.3545C95.7646 7.46236 88.2387 0 78.2127 0ZM90.4191 17.5532C90.4191 24.8104 85.1759 30.2854 78.2127 30.2854C71.2495 30.2854 65.9041 24.772 65.9041 17.4635V17.3673C65.9041 10.078 71.1536 4.57743 78.1168 4.57743C85.08 4.57743 90.4191 10.2383 90.4191 17.4635V17.5532Z" fill="#E9CDB0"/>
<path d="M21.9382 18.2454V16.3605H2.07809V2.20514H24.1633V0.320312H0V34.5805H24.4127V32.6957H2.07809V18.2454H21.9382Z" fill="#E9CDB0"/>
<path d="M56.8757 0.403809L44.2793 30.8815L31.7277 0.403809H28.083L42.7127 34.7473H45.7435L60.3669 0.403809H56.8757Z" fill="#E9CDB0"/>
<path d="M103.003 0.403809V34.4973H127.249V28.2082H109.966V0.403809H103.003Z" fill="#E9CDB0"/>
<path d="M151.489 0.608887L143.19 23.6563L134.935 0.608887H125.414L138.995 34.5421H147.186L160.818 0.608887H151.489Z" fill="#E9CDB0"/>
<path d="M190.883 20.8739V13.7769H174.239V7.96859H192.616V0.320312H165.23V34.5805H192.865V26.8873H174.239V20.8739H190.883Z" fill="#E9CDB0"/>
<path d="M198.064 0.0703125H211.492C223.819 0.0703125 231.006 7.22495 231.006 17.2517V17.3543C231.006 27.381 223.724 34.8306 211.293 34.8306H198.064V0.0703125ZM207.655 8.56484V26.2847H211.568C217.368 26.2847 221.159 23.0793 221.159 17.4953V17.3927C221.159 11.8344 217.323 8.55843 211.568 8.55843L207.655 8.56484Z" fill="#E9CDB0"/>
<path d="M29.0869 46.749H30.5V50.1084H34.3365V46.749H35.7496V54.8268H34.3493V51.4226H30.5128V54.8268H29.0869V46.749Z" fill="#E9CDB0"/>
<path d="M44.1193 46.6909H45.3982L48.9405 54.8264H47.5018L46.6834 52.9031H42.8469L42.0221 54.8264H40.5962L44.1193 46.6909ZM46.1399 51.6209L44.7524 48.4155L43.3712 51.6209H46.1399Z" fill="#E9CDB0"/>
<path d="M53.915 46.749H55.3281V54.8268H53.915V46.749Z" fill="#E9CDB0"/>
<path d="M60.936 46.749H64.5231C65.3745 46.7022 66.2103 46.9923 66.8506 47.5568C67.0663 47.791 67.2339 48.0656 67.3436 48.3648C67.4533 48.6641 67.5031 48.9821 67.49 49.3006C67.5082 49.8697 67.3259 50.4271 66.9751 50.8749C66.6244 51.3227 66.1275 51.6324 65.5718 51.7496L67.7458 54.8076H66.0641L64.0819 51.9932H62.3491V54.8076H60.936V46.749ZM64.4208 50.7559C65.4375 50.7559 66.0769 50.2238 66.0769 49.4032C66.0769 48.5313 65.4375 48.0633 64.408 48.0633H62.3491V50.7751L64.4208 50.7559Z" fill="#E9CDB0"/>
<path d="M79.6128 46.7488H83.2063C84.0557 46.703 84.889 46.9931 85.5274 47.5566C85.7486 47.7885 85.9218 48.0619 86.037 48.3612C86.1523 48.6605 86.2072 48.9797 86.1988 49.3004C86.2182 49.8698 86.0364 50.4278 85.6854 50.8759C85.3345 51.324 84.8369 51.6334 84.2805 51.7494L86.4545 54.8074H84.7729L82.7971 51.993H81.0195V54.8074H79.6064L79.6128 46.7488ZM83.1232 50.7557C84.1399 50.7557 84.7857 50.2236 84.7857 49.403C84.7857 48.5311 84.1463 48.0631 83.1168 48.0631H81.0515V50.7749L83.1232 50.7557Z" fill="#E9CDB0"/>
<path d="M91.3848 46.749H97.3633V48.0312H92.8043V50.134H96.8453V51.4162H92.8043V53.5831H97.4208V54.8653H91.3848V46.749Z" fill="#E9CDB0"/>
<path d="M102.012 53.6533L102.862 52.634C103.548 53.3007 104.464 53.6772 105.42 53.6854C106.296 53.6854 106.846 53.2687 106.846 52.6724C106.846 52.0955 106.526 51.7813 105.03 51.4351C103.31 51.0248 102.344 50.5119 102.344 49.0246C102.344 47.6398 103.495 46.6846 105.094 46.6846C106.159 46.662 107.197 47.0212 108.022 47.6975L107.248 48.7233C106.631 48.2121 105.862 47.9192 105.062 47.8899C104.23 47.8899 103.751 48.3194 103.751 48.8515C103.751 49.4926 104.115 49.7555 105.669 50.1337C107.376 50.5504 108.227 51.1659 108.227 52.4993C108.227 54.0123 107.037 54.9099 105.343 54.9099C104.116 54.9191 102.929 54.4714 102.012 53.6533Z" fill="#E9CDB0"/>
<path d="M115.177 48.082H112.62V46.7998H119.161V48.082H116.603V54.8263H115.177V48.082Z" fill="#E9CDB0"/>
<path d="M123.317 50.8132C123.317 49.6927 123.761 48.6181 124.551 47.8258C125.341 47.0335 126.413 46.5884 127.531 46.5884C128.648 46.5884 129.72 47.0335 130.51 47.8258C131.3 48.6181 131.744 49.6927 131.744 50.8132C131.744 51.9337 131.3 53.0083 130.51 53.8006C129.72 54.5929 128.648 55.038 127.531 55.038C126.413 55.038 125.341 54.5929 124.551 53.8006C123.761 53.0083 123.317 51.9337 123.317 50.8132ZM130.254 50.8132C130.269 50.4429 130.209 50.0734 130.078 49.7268C129.948 49.3801 129.749 49.0634 129.493 48.7954C129.238 48.5275 128.932 48.3138 128.592 48.167C128.253 48.0202 127.887 47.9434 127.518 47.9411C127.15 47.9416 126.786 48.0167 126.449 48.1619C126.111 48.3071 125.806 48.5193 125.552 48.7859C125.298 49.0525 125.1 49.3678 124.971 49.7129C124.842 50.058 124.784 50.4257 124.8 50.794C124.786 51.164 124.846 51.5331 124.976 51.8794C125.107 52.2257 125.306 52.542 125.562 52.8095C125.817 53.077 126.124 53.2901 126.463 53.4361C126.802 53.5822 127.168 53.6582 127.537 53.6597C127.905 53.661 128.269 53.5873 128.607 53.4431C128.945 53.2989 129.251 53.0873 129.505 52.8211C129.759 52.5548 129.957 52.2395 130.085 51.8944C130.214 51.5492 130.272 51.1814 130.254 50.8132Z" fill="#E9CDB0"/>
<path d="M136.904 46.749H140.498C141.349 46.7022 142.185 46.9923 142.825 47.5568C143.258 48.0317 143.488 48.6578 143.465 49.3006C143.484 49.87 143.302 50.428 142.951 50.8761C142.6 51.3242 142.103 51.6336 141.546 51.7496L143.727 54.8076H142.077L140.095 51.9932H138.324V54.8076H136.904V46.749ZM140.395 50.7559C141.406 50.7559 142.052 50.2238 142.052 49.4032C142.052 48.5313 141.412 48.0633 140.383 48.0633H138.324V50.7751L140.395 50.7559Z" fill="#E9CDB0"/>
<path d="M151.54 46.6909H152.819L156.368 54.8264H154.872L154.053 52.9031H150.217L149.386 54.8264H147.94L151.54 46.6909ZM153.567 51.6209L152.173 48.4155L150.792 51.6209H153.567Z" fill="#E9CDB0"/>
<path d="M162.168 48.082H159.61V46.7998H166.145V48.082H163.587V54.8263H162.155L162.168 48.082Z" fill="#E9CDB0"/>
<path d="M171.183 46.749H172.596V54.8268H171.183V46.749Z" fill="#E9CDB0"/>
<path d="M177.846 50.8132C177.846 49.6927 178.29 48.6181 179.08 47.8258C179.87 47.0335 180.942 46.5884 182.059 46.5884C183.177 46.5884 184.249 47.0335 185.039 47.8258C185.829 48.6181 186.273 49.6927 186.273 50.8132C186.273 51.9337 185.829 53.0083 185.039 53.8006C184.249 54.5929 183.177 55.038 182.059 55.038C180.942 55.038 179.87 54.5929 179.08 53.8006C178.29 53.0083 177.846 51.9337 177.846 50.8132ZM184.79 50.8132C184.803 50.4426 184.743 50.073 184.611 49.7263C184.48 49.3796 184.28 49.063 184.024 48.7951C183.769 48.5272 183.462 48.3136 183.122 48.1669C182.782 48.0202 182.417 47.9434 182.047 47.9411C181.679 47.9416 181.315 48.0167 180.977 48.1619C180.639 48.3071 180.334 48.5193 180.08 48.7859C179.827 49.0525 179.629 49.3678 179.5 49.7129C179.371 50.058 179.313 50.4257 179.329 50.794C179.315 51.1643 179.376 51.5336 179.508 51.8799C179.639 52.2262 179.839 52.5425 180.095 52.8098C180.351 53.0772 180.658 53.2902 180.997 53.4362C181.337 53.5822 181.703 53.6582 182.072 53.6597C182.44 53.66 182.803 53.5857 183.141 53.4413C183.479 53.2968 183.784 53.0851 184.038 52.8191C184.292 52.553 184.49 52.2381 184.619 51.8933C184.748 51.5486 184.806 51.1811 184.79 50.8132Z" fill="#E9CDB0"/>
<path d="M191.439 46.749H192.75L197.066 52.333V46.749H198.46V54.8268H197.271L192.827 49.057V54.8268H191.439V46.749Z" fill="#E9CDB0"/>
</g>
<defs>
<clipPath id="clip0_982:25">
<rect width="231" height="58" fill="white"/>
</clipPath>
</defs>
</svg>
